<svg width="119" height="54" viewBox="0 0 119 54" fill="none" xmlns="http://www.w3.org/2000/svg">
<g clip-path="url(#clip0_303_2159)">
<rect width="54" height="54" rx="12" fill="#29A19C"/>
<g clip-path="url(#clip1_303_2159)">
<path d="M39.25 11.25H31.935C31.2 9.22 29.275 7.75 27 7.75C24.725 7.75 22.8 9.22 22.065 11.25H14.75C12.825 11.25 11.25 12.825 11.25 14.75V39.25C11.25 41.175 12.825 42.75 14.75 42.75H39.25C41.175 42.75 42.75 41.175 42.75 39.25V14.75C42.75 12.825 41.175 11.25 39.25 11.25ZM27 11.25C27.9625 11.25 28.75 12.0375 28.75 13C28.75 13.9625 27.9625 14.75 27 14.75C26.0375 14.75 25.25 13.9625 25.25 13C25.25 12.0375 26.0375 11.25 27 11.25ZM30.5 35.75H18.25V32.25H30.5V35.75ZM35.75 28.75H18.25V25.25H35.75V28.75ZM35.75 21.75H18.25V18.25H35.75V21.75Z" fill="#FAFAFA"/>
</g>
</g>
<path d="M68.248 11.38H64.072V9.4H74.764V11.38H70.588V22H68.248V11.38ZM80.0064 12.28C81.4224 12.28 82.5024 12.622 83.2464 13.306C84.0024 13.978 84.3804 14.998 84.3804 16.366V22H82.2564V20.83C81.9804 21.25 81.5844 21.574 81.0684 21.802C80.5644 22.018 79.9524 22.126 79.2324 22.126C78.5124 22.126 77.8824 22.006 77.3424 21.766C76.8024 21.514 76.3824 21.172 76.0824 20.74C75.7944 20.296 75.6504 19.798 75.6504 19.246C75.6504 18.382 75.9684 17.692 76.6044 17.176C77.2524 16.648 78.2664 16.384 79.6464 16.384H82.1304V16.24C82.1304 15.568 81.9264 15.052 81.5184 14.692C81.1224 14.332 80.5284 14.152 79.7364 14.152C79.1964 14.152 78.6624 14.236 78.1344 14.404C77.6184 14.572 77.1804 14.806 76.8204 15.106L75.9384 13.468C76.4424 13.084 77.0484 12.79 77.7564 12.586C78.4644 12.382 79.2144 12.28 80.0064 12.28ZM79.7004 20.488C80.2644 20.488 80.7624 20.362 81.1944 20.11C81.6384 19.846 81.9504 19.474 82.1304 18.994V17.878H79.8084C78.5124 17.878 77.8644 18.304 77.8644 19.156C77.8644 19.564 78.0264 19.888 78.3504 20.128C78.6744 20.368 79.1244 20.488 79.7004 20.488ZM90.778 22.126C89.998 22.126 89.236 22.024 88.492 21.82C87.748 21.616 87.154 21.358 86.71 21.046L87.574 19.336C88.006 19.624 88.522 19.858 89.122 20.038C89.734 20.206 90.334 20.29 90.922 20.29C92.266 20.29 92.938 19.936 92.938 19.228C92.938 18.892 92.764 18.658 92.416 18.526C92.08 18.394 91.534 18.268 90.778 18.148C89.986 18.028 89.338 17.89 88.834 17.734C88.342 17.578 87.91 17.308 87.538 16.924C87.178 16.528 86.998 15.982 86.998 15.286C86.998 14.374 87.376 13.648 88.132 13.108C88.9 12.556 89.932 12.28 91.228 12.28C91.888 12.28 92.548 12.358 93.208 12.514C93.868 12.658 94.408 12.856 94.828 13.108L93.964 14.818C93.148 14.338 92.23 14.098 91.21 14.098C90.55 14.098 90.046 14.2 89.698 14.404C89.362 14.596 89.194 14.854 89.194 15.178C89.194 15.538 89.374 15.796 89.734 15.952C90.106 16.096 90.676 16.234 91.444 16.366C92.212 16.486 92.842 16.624 93.334 16.78C93.826 16.936 94.246 17.2 94.594 17.572C94.954 17.944 95.134 18.472 95.134 19.156C95.134 20.056 94.744 20.776 93.964 21.316C93.184 21.856 92.122 22.126 90.778 22.126ZM101.536 17.878L99.8616 19.462V22H97.6116V8.644H99.8616V16.708L104.524 12.388H107.224L103.21 16.42L107.602 22H104.866L101.536 17.878ZM112.266 22.126C111.486 22.126 110.724 22.024 109.98 21.82C109.236 21.616 108.642 21.358 108.198 21.046L109.062 19.336C109.494 19.624 110.01 19.858 110.61 20.038C111.222 20.206 111.822 20.29 112.41 20.29C113.754 20.29 114.426 19.936 114.426 19.228C114.426 18.892 114.252 18.658 113.904 18.526C113.568 18.394 113.022 18.268 112.266 18.148C111.474 18.028 110.826 17.89 110.322 17.734C109.83 17.578 109.398 17.308 109.026 16.924C108.666 16.528 108.486 15.982 108.486 15.286C108.486 14.374 108.864 13.648 109.62 13.108C110.388 12.556 111.42 12.28 112.716 12.28C113.376 12.28 114.036 12.358 114.696 12.514C115.356 12.658 115.896 12.856 116.316 13.108L115.452 14.818C114.636 14.338 113.718 14.098 112.698 14.098C112.038 14.098 111.534 14.2 111.186 14.404C110.85 14.596 110.682 14.854 110.682 15.178C110.682 15.538 110.862 15.796 111.222 15.952C111.594 16.096 112.164 16.234 112.932 16.366C113.7 16.486 114.33 16.624 114.822 16.78C115.314 16.936 115.734 17.2 116.082 17.572C116.442 17.944 116.622 18.472 116.622 19.156C116.622 20.056 116.232 20.776 115.452 21.316C114.672 21.856 113.61 22.126 112.266 22.126ZM74.62 37.448C75.316 37.676 75.868 38.06 76.276 38.6C76.684 39.128 76.888 39.788 76.888 40.58C76.888 41.672 76.468 42.518 75.628 43.118C74.788 43.706 73.564 44 71.956 44H65.692V31.4H71.596C73.084 31.4 74.23 31.694 75.034 32.282C75.838 32.858 76.24 33.656 76.24 34.676C76.24 35.3 76.096 35.852 75.808 36.332C75.52 36.812 75.124 37.184 74.62 37.448ZM68.032 33.236V36.71H71.344C72.16 36.71 72.784 36.566 73.216 36.278C73.66 35.978 73.882 35.546 73.882 34.982C73.882 34.406 73.66 33.974 73.216 33.686C72.784 33.386 72.16 33.236 71.344 33.236H68.032ZM71.812 42.164C73.624 42.164 74.53 41.558 74.53 40.346C74.53 39.134 73.624 38.528 71.812 38.528H68.032V42.164H71.812ZM84.0294 44.126C83.0574 44.126 82.1814 43.916 81.4014 43.496C80.6214 43.076 80.0094 42.494 79.5654 41.75C79.1334 40.994 78.9174 40.142 78.9174 39.194C78.9174 38.246 79.1334 37.4 79.5654 36.656C80.0094 35.912 80.6214 35.33 81.4014 34.91C82.1814 34.49 83.0574 34.28 84.0294 34.28C85.0134 34.28 85.8954 34.49 86.6754 34.91C87.4554 35.33 88.0614 35.912 88.4934 36.656C88.9374 37.4 89.1594 38.246 89.1594 39.194C89.1594 40.142 88.9374 40.994 88.4934 41.75C88.0614 42.494 87.4554 43.076 86.6754 43.496C85.8954 43.916 85.0134 44.126 84.0294 44.126ZM84.0294 42.2C84.8574 42.2 85.5414 41.924 86.0814 41.372C86.6214 40.82 86.8914 40.094 86.8914 39.194C86.8914 38.294 86.6214 37.568 86.0814 37.016C85.5414 36.464 84.8574 36.188 84.0294 36.188C83.2014 36.188 82.5174 36.464 81.9774 37.016C81.4494 37.568 81.1854 38.294 81.1854 39.194C81.1854 40.094 81.4494 40.82 81.9774 41.372C82.5174 41.924 83.2014 42.2 84.0294 42.2ZM96.1709 44.126C95.1989 44.126 94.3229 43.916 93.5429 43.496C92.7629 43.076 92.1509 42.494 91.7069 41.75C91.2749 40.994 91.0589 40.142 91.0589 39.194C91.0589 38.246 91.2749 37.4 91.7069 36.656C92.1509 35.912 92.7629 35.33 93.5429 34.91C94.3229 34.49 95.1989 34.28 96.1709 34.28C97.1549 34.28 98.0369 34.49 98.8169 34.91C99.5969 35.33 100.203 35.912 100.635 36.656C101.079 37.4 101.301 38.246 101.301 39.194C101.301 40.142 101.079 40.994 100.635 41.75C100.203 42.494 99.5969 43.076 98.8169 43.496C98.0369 43.916 97.1549 44.126 96.1709 44.126ZM96.1709 42.2C96.9989 42.2 97.6829 41.924 98.2229 41.372C98.7629 40.82 99.0329 40.094 99.0329 39.194C99.0329 38.294 98.7629 37.568 98.2229 37.016C97.6829 36.464 96.9989 36.188 96.1709 36.188C95.3429 36.188 94.6589 36.464 94.1189 37.016C93.5909 37.568 93.3269 38.294 93.3269 39.194C93.3269 40.094 93.5909 40.82 94.1189 41.372C94.6589 41.924 95.3429 42.2 96.1709 42.2ZM107.916 39.878L106.242 41.462V44H103.992V30.644H106.242V38.708L110.904 34.388H113.604L109.59 38.42L113.982 44H111.246L107.916 39.878Z" fill="#29A19C"/>
<defs>
<clipPath id="clip0_303_2159">
<rect width="54" height="54" fill="white"/>
</clipPath>
<clipPath id="clip1_303_2159">
<rect width="42" height="42" fill="white" transform="translate(6 6)"/>
</clipPath>
</defs>
</svg>
